# xmcd CD database file
#
# Track frame offsets:
#	150
#	14320
#	29030
#	44404
#	71949
#	89970
#	108709
#	122528
#	138580
#	154439
#	168718
#	189398
#	210379
#	221061
#	238256
#	252188
#	267313
#	277977
#
# Disc length: 4248 seconds
#
# Revision: 0
# Processed by: cddbd v1.5.2PL0 Copyright (c) Steve Scherf et al.
# Submitted via: CDex 1.51
#
DISCID=22109612
DTITLE=K.C.Miller - He´s got a way with women
DYEAR=2003
DGENRE=Blues
TTITLE0=Down the road
TTITLE1=Rompin' and Stompin'
TTITLE2=Yanceys Bounce
TTITLE3=Same old Blues
TTITLE4=Framed
TTITLE5=She´s real
TTITLE6=KCs Boogie Woogie
TTITLE7=Blue devil Stomp
TTITLE8=Clean - cut Boogie
TTITLE9=Lonesome Blues
TTITLE10=Beer drinkin´ woman
TTITLE11=Wine spoo dee o dee
TTITLE12=Rebekka
TTITLE13=I hate to be alone
TTITLE14=He´s got a way with women
TTITLE15=Run away Boogie
TTITLE16=Straight ahaed
TTITLE17=Drown in my own tears
EXTD=YEAR: 2003
EXTT0=
EXTT1=
EXTT2=
EXTT3=
EXTT4=
EXTT5=
EXTT6=
EXTT7=
EXTT8=
EXTT9=
EXTT10=
EXTT11=
EXTT12=
EXTT13=
EXTT14=
EXTT15=
EXTT16=
EXTT17=
PLAYORDER=
